<svg width="15" height="18" xmlns="http://www.w3.org/2000/svg"><path d="M14.136 11.05c-.577 1.525-1.642 2.705-3.167 3.329v-3.33l1.826-1.641-1.826-1.618V5.5c1.664-.116 2.82-1.34 2.82-2.843C13.789.694 11.917 0 10.853 0c-.231 0-.486 0-.856.093v.092c.139 0 .346-.023.416-.023.739 0 1.294.347 1.294 1.017 0 .508-.417 1.018-1.156 1.018-1.826 0-3.976-1.48-6.31-1.48C2.16.717.726 2.266.726 3.837c0 1.55.9 2.057 1.85 2.405l.023-.093c-.3-.185-.507-.508-.507-1.017 0-.694.647-1.271 1.456-1.271 1.964 0 5.132 1.641 7.097 1.641h.184v2.312L9.004 9.408l1.826 1.642v3.375a6.836 6.836 0 0 1-2.357.393c-3.051 0-4.993-1.85-4.993-4.924 0-.74.092-1.457.3-2.15l1.526-.67v6.796l3.098-1.364V5.548L3.849 7.582a4.977 4.977 0 0 1 2.543-2.867l-.023-.07c-3.051.671-6.01 2.983-6.01 6.45 0 4 3.375 6.774 7.304 6.774 4.161 0 6.519-2.774 6.542-6.82h-.069z" fill-rule="nonzero" fill="#121212"/></svg>